<?xml version="1.0" standalone="no"?>
<!DOCTYPE svg PUBLIC "-//W3C//DTD SVG 20010904//EN"
 "http://www.w3.org/TR/2001/REC-SVG-20010904/DTD/svg10.dtd">
<svg version="1.0" xmlns="http://www.w3.org/2000/svg"
 width="480.000000pt" height="480.000000pt" viewBox="0 0 480.000000 480.000000"
 preserveAspectRatio="xMidYMid meet">

<g transform="translate(0.000000,480.000000) scale(0.100000,-0.100000)"
fill="#000000" stroke="none">
<path d="M0 2400 l0 -2400 487 2 488 3 14 55 c67 266 191 674 295 965 74 210
68 244 -79 420 -202 243 -275 381 -291 554 l-6 66 30 -50 c39 -66 135 -156
201 -189 128 -65 327 -86 435 -46 135 51 231 203 270 427 9 48 16 105 16 126
0 69 10 77 99 77 51 0 82 -4 88 -12 6 -7 15 -73 21 -146 14 -154 40 -268 87
-368 90 -196 233 -329 419 -391 73 -24 96 -27 226 -27 l145 -1 75 36 c95 46
147 91 206 181 82 122 134 318 134 498 0 98 -31 300 -55 357 -25 59 -59 96
-115 127 -48 26 -64 29 -255 42 -327 23 -763 32 -1322 29 l-522 -4 8 22 c5 12
34 76 64 142 76 164 107 307 114 538 5 159 7 167 26 167 48 0 222 -216 259
-320 l10 -30 733 0 732 0 28 78 c51 145 196 425 237 460 27 22 40 -6 64 -144
201 -1175 344 -2353 404 -3329 5 -93 13 -203 16 -242 l6 -73 504 0 504 0 0
2400 0 2400 -2400 0 -2400 0 0 -2400z"/>
<path d="M1942 1847 c-5 -7 -14 -26 -21 -43 -14 -36 -72 -94 -116 -117 -23
-13 -26 -16 -11 -17 32 0 103 39 131 72 25 29 26 30 41 12 8 -11 19 -27 25
-36 9 -17 105 -78 122 -78 5 0 -17 23 -48 51 -60 56 -85 94 -85 132 0 28 -24
42 -38 24z"/>
</g>
</svg>
